<svg width="104" height="24" viewBox="0 0 104 24" fill="none" xmlns="http://www.w3.org/2000/svg">
<path d="M15.756 4.74L12.144 7.308H7.032V2.64L9.84 0.599999H0L2.832 2.64V6.96L0 9H15.756V4.74ZM32.5653 4.944L29.1933 7.344H23.4573V5.604H26.5413L28.8213 6.636V3.096L26.4813 3.876H23.4453V2.28H29.1453L32.2773 4.404V0.599999H16.4133L19.2453 2.64V6.96L16.4133 9H32.5653V4.944ZM40.8271 9L38.4511 7.344L38.8111 6.756H43.2031L43.6231 7.296L40.9471 9H51.1591L48.0391 6.96L44.7031 2.304L46.7791 0.599999H36.9271L38.8831 2.292L35.7751 6.96L33.2311 9H40.8271ZM39.6631 5.364L40.8631 3.42L42.2191 5.364H39.6631ZM69.0316 4.872C69.0316 2.184 65.3476 0.599999 62.6236 0.599999H51.5956L54.4156 2.64V6.96L51.5836 9H62.4796C65.0836 9 69.0316 7.968 69.0316 4.872ZM64.1596 4.812C64.1596 6.36 63.2596 7.2 61.8796 7.2H58.6156V2.28H61.4956C63.1036 2.28 64.1596 3.372 64.1596 4.812ZM85.1332 4.944L81.7612 7.344H76.0252V5.604H79.1092L81.3892 6.636V3.096L79.0492 3.876H76.0132V2.28H81.7132L84.8452 4.404V0.599999H68.9812L71.8132 2.64V6.96L68.9812 9H85.1332V4.944ZM101.951 7.716C101.255 6.432 100.499 5.436 99.1791 5.136C100.223 4.956 102.443 4.38 102.443 3.048C102.443 1.02 98.8191 0.599999 97.0911 0.599999H86.0391L88.8711 2.64V6.96L86.0391 9H96.1911L93.0711 6.96V5.712H95.6151C96.3231 5.712 96.8271 5.892 97.0071 6.288C97.2471 6.804 97.3431 7.368 97.5951 7.872C97.8831 8.46 98.1831 8.808 98.3631 9H103.955L101.951 7.716ZM97.9191 3.156C97.9191 3.792 97.5231 4.116 96.7431 4.116H93.0831V2.28H96.5391C97.1031 2.28 97.9191 2.508 97.9191 3.156ZM15.288 20.012C15.288 19.52 14.928 19.064 14.676 19.064C14.64 19.064 14.652 19.28 14.472 19.7C14.244 20.192 13.788 20.6 13.104 20.9C12.108 21.32 10.668 21.536 8.784 21.536C7.152 21.536 5.328 20.732 5.328 18.8C5.328 16.736 7.224 15.992 9.084 15.992C10.98 15.992 13.704 16.712 14.784 18.5V14.6L13.212 15.512C11.496 14.744 9.912 14.36 8.46 14.36C6.348 14.36 4.488 14.792 2.868 15.668C1.2 16.568 0.36 17.66 0.36 18.92C0.36 22.532 5.568 23.36 8.784 23.36C10.8 23.36 12.408 23.036 13.608 22.376C14.724 21.764 15.288 20.972 15.288 20.012ZM31.2833 18.74L27.6713 21.308H22.5593V16.64L25.3673 14.6H15.5273L18.3593 16.64V20.96L15.5273 23H31.2833V18.74ZM39.1138 23L36.7378 21.344L37.0978 20.756H41.4898L41.9098 21.296L39.2338 23H49.4458L46.3258 20.96L42.9898 16.304L45.0658 14.6H35.2138L37.1698 16.292L34.0618 20.96L31.5178 23H39.1138ZM37.9498 19.364L39.1498 17.42L40.5058 19.364H37.9498ZM63.2082 20.456C63.2082 19.292 62.4522 18.44 60.9522 17.924C60.1002 17.624 58.6842 17.372 56.7042 17.216C53.1762 16.94 52.7082 16.916 52.7082 16.4C52.7082 15.824 53.7522 15.812 55.4442 15.812C57.4362 15.812 60.0522 16.64 61.7082 17.9V14.42L59.5962 15.104C58.4082 14.72 56.6802 14.36 55.2642 14.36C51.5442 14.36 49.6842 15.296 49.6842 17.18C49.6842 19.136 51.9282 20.216 56.4162 20.432C57.3642 20.48 59.8002 20.48 59.8002 21.224C59.8002 21.812 58.0122 21.872 57.5922 21.872C56.1402 21.872 54.7242 21.62 53.3202 21.128C51.8442 20.6 50.7522 19.928 50.0562 19.1V23.168L52.2402 22.4C53.9442 23.096 56.1642 23.36 58.0962 23.36C59.8002 23.36 63.2082 22.844 63.2082 20.456ZM77.4465 20.456C77.4465 19.292 76.6905 18.44 75.1905 17.924C74.3385 17.624 72.9225 17.372 70.9425 17.216C67.4145 16.94 66.9465 16.916 66.9465 16.4C66.9465 15.824 67.9905 15.812 69.6825 15.812C71.6745 15.812 74.2905 16.64 75.9465 17.9V14.42L73.8345 15.104C72.6465 14.72 70.9185 14.36 69.5025 14.36C65.7825 14.36 63.9225 15.296 63.9225 17.18C63.9225 19.136 66.1665 20.216 70.6545 20.432C71.6025 20.48 74.0385 20.48 74.0385 21.224C74.0385 21.812 72.2505 21.872 71.8305 21.872C70.3785 21.872 68.9625 21.62 67.5585 21.128C66.0825 20.6 64.9905 19.928 64.2945 19.1V23.168L66.4785 22.4C68.1825 23.096 70.4025 23.36 72.3345 23.36C74.0385 23.36 77.4465 22.844 77.4465 20.456ZM84.4695 20.96V16.64L87.2895 14.6H77.4375L80.2695 16.64V20.96L77.4375 23H87.3015L84.4695 20.96ZM102.112 20.012C102.112 19.52 101.752 19.064 101.5 19.064C101.464 19.064 101.476 19.28 101.296 19.7C101.068 20.192 100.612 20.6 99.9282 20.9C98.9322 21.32 97.4922 21.536 95.6082 21.536C93.9762 21.536 92.1522 20.732 92.1522 18.8C92.1522 16.736 94.0482 15.992 95.9082 15.992C97.8042 15.992 100.528 16.712 101.608 18.5V14.6L100.036 15.512C98.3202 14.744 96.7362 14.36 95.2842 14.36C93.1722 14.36 91.3122 14.792 89.6922 15.668C88.0242 16.568 87.1842 17.66 87.1842 18.92C87.1842 22.532 92.3922 23.36 95.6082 23.36C97.6242 23.36 99.2322 23.036 100.432 22.376C101.548 21.764 102.112 20.972 102.112 20.012Z" fill="white"/>
</svg>
